<svg xmlns="http://www.w3.org/2000/svg" height="24" viewBox="0 -960 960 960" width="24" fill="currentColor">
  <path d="M480-160q-48-38-104-59t-116-21q-42 0-82.5 11T100-198q-21 11-40.5-1T40-234v-482q0-11 5.5-21T62-752q46-24 96-36t102-12q58 0 113.5 15T480-740v484q51-32 107-48t113-16q36 0 70.5 6.5T840-295v-457q15 5 29.5 10.5T898-731q11 5 16.5 15t5.5 21v482q0 23-19.5 35T860-198q-38-20-78.5-31T700-240q-60 0-116 21t-104 59Zm80-200v-380l200-200v400L560-360Zm-160 65v-396q-33-14-68.5-21.5T260-720q-37 0-72 7t-68 21v396q35-9 70-13.5t70-4.5q36 0 70.5 4.5T400-295Z"/>
</svg>
